<?xml version="1.0" encoding="UTF-8"?>
<!DOCTYPE svg PUBLIC "-//W3C//DTD SVG 1.1//EN" "http://www.w3.org/Graphics/SVG/1.1/DTD/svg11.dtd">
<svg xmlns="http://www.w3.org/2000/svg" version="1.1" width="491px" height="503px" style="shape-rendering:geometricPrecision; text-rendering:geometricPrecision; image-rendering:optimizeQuality; fill-rule:evenodd; clip-rule:evenodd" xmlns:xlink="http://www.w3.org/1999/xlink">
<g><path style="opacity:1" fill="#0d0d0d" d="M 367.5,41.5 C 367.821,43.0481 368.821,43.7148 370.5,43.5C 376.206,46.3468 381.539,49.6802 386.5,53.5C 387.035,55.4456 388.368,56.4456 390.5,56.5C 399.401,62.0662 407.401,68.7329 414.5,76.5C 414.973,77.9063 415.973,78.573 417.5,78.5C 417.5,80.5 418.5,81.5 420.5,81.5C 421.757,84.4274 423.757,86.7607 426.5,88.5C 428.833,90.1667 430.833,92.1667 432.5,94.5C 432.427,96.0269 433.094,97.0269 434.5,97.5C 435.833,98.1667 436.833,99.1667 437.5,100.5C 437.427,102.027 438.094,103.027 439.5,103.5C 443.262,106.929 446.262,110.929 448.5,115.5C 448.427,117.027 449.094,118.027 450.5,118.5C 450.427,120.027 451.094,121.027 452.5,121.5C 452.427,123.027 453.094,124.027 454.5,124.5C 466.718,142.944 475.718,162.944 481.5,184.5C 481.41,187.152 482.076,189.485 483.5,191.5C 486.473,201.699 488.806,212.032 490.5,222.5C 490.5,243.167 490.5,263.833 490.5,284.5C 474.606,380.225 421.606,446.058 331.5,482C 286.905,496.893 241.571,499.56 195.5,490C 190.244,488.942 185.244,487.442 180.5,485.5C 178.485,484.076 176.152,483.41 173.5,483.5C 154.552,477.641 136.885,469.308 120.5,458.5C 120.027,457.094 119.027,456.427 117.5,456.5C 117.027,455.094 116.027,454.427 114.5,454.5C 114.027,453.094 113.027,452.427 111.5,452.5C 106.929,450.262 102.929,447.262 99.5,443.5C 99.0269,442.094 98.0269,441.427 96.5,441.5C 95.1667,440.833 94.1667,439.833 93.5,438.5C 93.0269,437.094 92.0269,436.427 90.5,436.5C 88.1667,434.833 86.1667,432.833 84.5,430.5C 83.0892,428.086 81.0892,426.419 78.5,425.5C 76.8333,424.5 75.5,423.167 74.5,421.5C 74.573,419.973 73.9063,418.973 72.5,418.5C 64.7329,411.401 58.0662,403.401 52.5,394.5C 52.4456,392.368 51.4456,391.035 49.5,390.5C 12.7324,335.51 -0.100912,275.177 11,209.5C 11.947,203.235 13.447,197.235 15.5,191.5C 16.9238,189.485 17.5905,187.152 17.5,184.5C 18.9238,182.485 19.5905,180.152 19.5,177.5C 25.3588,158.552 33.6922,140.885 44.5,124.5C 45.9063,124.027 46.573,123.027 46.5,121.5C 47.9063,121.027 48.573,120.027 48.5,118.5C 49.9063,118.027 50.573,117.027 50.5,115.5C 52.7376,110.929 55.7376,106.929 59.5,103.5C 60.9063,103.027 61.573,102.027 61.5,100.5C 62.1667,99.1667 63.1667,98.1667 64.5,97.5C 65.9063,97.0269 66.573,96.0269 66.5,94.5C 68.1667,92.1667 70.1667,90.1667 72.5,88.5C 76.8333,84.8333 80.8333,80.8333 84.5,76.5C 84.8333,75.5 85.5,74.8333 86.5,74.5C 89.4274,73.2427 91.7607,71.2427 93.5,68.5C 93.5,67.8333 93.8333,67.5 94.5,67.5C 96.7488,66.9202 98.4154,65.5869 99.5,63.5C 102.19,60.8154 105.19,58.4821 108.5,56.5C 110.027,56.573 111.027,55.9063 111.5,54.5C 113.147,52.6736 115.147,51.3403 117.5,50.5C 119.027,50.573 120.027,49.9063 120.5,48.5C 125.316,44.7072 130.65,41.7072 136.5,39.5C 138.027,39.573 139.027,38.9063 139.5,37.5C 150.204,31.4826 161.538,26.816 173.5,23.5C 176.152,23.5905 178.485,22.9238 180.5,21.5C 245.408,2.82257 307.741,9.48923 367.5,41.5 Z M 276.5,38.5 C 288.916,40.6504 301.25,43.317 313.5,46.5C 314.93,47.5375 316.597,48.2041 318.5,48.5C 331.846,53.339 344.846,59.0057 357.5,65.5C 357.973,66.9063 358.973,67.573 360.5,67.5C 360.842,68.3382 361.508,68.6716 362.5,68.5C 362.973,69.9063 363.973,70.573 365.5,70.5C 365.973,71.9063 366.973,72.573 368.5,72.5C 368.973,73.9063 369.973,74.573 371.5,74.5C 371.973,75.9063 372.973,76.573 374.5,76.5C 374.973,77.9063 375.973,78.573 377.5,78.5C 379.091,80.6326 381.091,82.2993 383.5,83.5C 383.973,84.9063 384.973,85.573 386.5,85.5C 386.833,86.5 387.5,87.1667 388.5,87.5C 389.262,89.2624 390.596,90.2624 392.5,90.5C 398.797,97.2982 405.297,103.965 412,110.5C 417.413,117.067 422.579,123.733 427.5,130.5C 428.026,132.23 429.026,133.564 430.5,134.5C 431.569,136.969 432.902,139.302 434.5,141.5C 434.932,142.71 435.599,143.71 436.5,144.5C 467.062,199.332 473.728,256.999 456.5,317.5C 455.262,319.214 454.595,321.214 454.5,323.5C 451.381,331.739 447.714,339.739 443.5,347.5C 443.573,345.973 442.906,344.973 441.5,344.5C 441.008,342.181 440.008,340.181 438.5,338.5C 438.573,336.973 437.906,335.973 436.5,335.5C 430.56,323.576 424.227,311.909 417.5,300.5C 417.573,298.973 416.906,297.973 415.5,297.5C 415.008,295.181 414.008,293.181 412.5,291.5C 412.573,289.973 411.906,288.973 410.5,288.5C 404.56,276.576 398.227,264.909 391.5,253.5C 391.573,251.973 390.906,250.973 389.5,250.5C 389.008,248.181 388.008,246.181 386.5,244.5C 386.573,242.973 385.906,241.973 384.5,241.5C 378.56,229.576 372.227,217.909 365.5,206.5C 365.573,204.973 364.906,203.973 363.5,203.5C 362.58,200.492 361.246,197.659 359.5,195C 360.517,193.951 360.684,192.784 360,191.5C 358.385,190.614 356.885,189.614 355.5,188.5C 355.573,186.973 354.906,185.973 353.5,185.5C 349.338,176.507 344.672,167.84 339.5,159.5C 339.573,157.973 338.906,156.973 337.5,156.5C 337.008,154.181 336.008,152.181 334.5,150.5C 334.573,148.973 333.906,147.973 332.5,147.5C 325.005,132.505 317.005,117.839 308.5,103.5C 308.573,101.973 307.906,100.973 306.5,100.5C 299.005,85.5054 291.005,70.8387 282.5,56.5C 282.573,54.9731 281.906,53.9731 280.5,53.5C 280.008,51.1815 279.008,49.1815 277.5,47.5C 277.573,45.9731 276.906,44.9731 275.5,44.5C 275.34,42.847 274.674,41.5137 273.5,40.5C 273.821,38.9519 274.821,38.2852 276.5,38.5 Z M 215.5,39.5 C 217.099,39.2322 218.432,39.5655 219.5,40.5C 164.994,142.843 110.994,245.51 57.5,348.5C 56.8333,348.833 56.1667,349.167 55.5,349.5C 51.5542,340.609 47.8876,331.609 44.5,322.5C 44.2041,320.597 43.5375,318.93 42.5,317.5C 19.5238,229.285 40.8571,153.785 106.5,91C 138.139,64.1835 174.472,47.0168 215.5,39.5 Z M 245.5,50.5 C 246.167,50.5 246.833,50.5 247.5,50.5C 271.801,95.7672 296.635,140.767 322,185.5C 323.411,187.65 324.245,189.984 324.5,192.5C 323.094,192.973 322.427,193.973 322.5,195.5C 313.434,205.569 305.101,216.236 297.5,227.5C 295.738,228.262 294.738,229.596 294.5,231.5C 292.367,233.091 290.701,235.091 289.5,237.5C 288.094,237.973 287.427,238.973 287.5,240.5C 285.367,242.091 283.701,244.091 282.5,246.5C 281.094,246.973 280.427,247.973 280.5,249.5C 278.367,251.091 276.701,253.091 275.5,255.5C 274.094,255.973 273.427,256.973 273.5,258.5C 271.367,260.091 269.701,262.091 268.5,264.5C 267.094,264.973 266.427,265.973 266.5,267.5C 264.367,269.091 262.701,271.091 261.5,273.5C 260.094,273.973 259.427,274.973 259.5,276.5C 255.54,280.397 252.04,284.731 249,289.5C 246.63,286.961 244.13,284.628 241.5,282.5C 240.92,280.251 239.587,278.585 237.5,277.5C 233.833,273.167 229.833,269.167 225.5,265.5C 224.92,263.251 223.587,261.585 221.5,260.5C 217.833,256.167 213.833,252.167 209.5,248.5C 208.92,246.251 207.587,244.585 205.5,243.5C 201.833,239.167 197.833,235.167 193.5,231.5C 192.581,228.911 190.914,226.911 188.5,225.5C 184.833,221.167 180.833,217.167 176.5,213.5C 175.92,211.251 174.587,209.585 172.5,208.5C 170.523,206.186 168.523,203.853 166.5,201.5C 193.114,151.271 219.447,100.937 245.5,50.5 Z M 339.5,220.5 C 340.167,220.5 340.833,220.5 341.5,220.5C 347.567,232.299 353.9,243.966 360.5,255.5C 360.932,256.71 361.599,257.71 362.5,258.5C 370.488,273.14 378.488,287.806 386.5,302.5C 386.932,303.71 387.599,304.71 388.5,305.5C 396.488,320.14 404.488,334.806 412.5,349.5C 412.932,350.71 413.599,351.71 414.5,352.5C 418.576,360.426 422.91,368.26 427.5,376C 426.748,376.671 426.414,377.504 426.5,378.5C 425.094,378.973 424.427,379.973 424.5,381.5C 422.367,383.091 420.701,385.091 419.5,387.5C 418.094,387.973 417.427,388.973 417.5,390.5C 416.5,390.833 415.833,391.5 415.5,392.5C 413.738,393.262 412.738,394.596 412.5,396.5C 409.5,398.833 406.833,401.5 404.5,404.5C 400.833,407.5 397.5,410.833 394.5,414.5C 393.5,414.833 392.833,415.5 392.5,416.5C 389.911,417.419 387.911,419.086 386.5,421.5C 384.251,422.08 382.585,423.413 381.5,425.5C 378.883,426.786 376.55,428.453 374.5,430.5C 372.973,430.427 371.973,431.094 371.5,432.5C 369.973,432.427 368.973,433.094 368.5,434.5C 366.973,434.427 365.973,435.094 365.5,436.5C 352.259,443.954 338.592,450.62 324.5,456.5C 322.597,456.796 320.93,457.463 319.5,458.5C 315.216,459.261 311.216,460.595 307.5,462.5C 248.878,477.214 193.211,469.881 140.5,440.5C 139.71,439.599 138.71,438.932 137.5,438.5C 135.302,436.902 132.969,435.569 130.5,434.5C 129.564,433.026 128.23,432.026 126.5,431.5C 119.733,426.579 113.067,421.413 106.5,416C 99.9648,409.297 93.2982,402.797 86.5,396.5C 86.2624,394.596 85.2624,393.262 83.5,392.5C 83.1667,391.5 82.5,390.833 81.5,390.5C 81.573,388.973 80.9063,387.973 79.5,387.5C 78.2524,385.351 76.7524,383.351 75,381.5C 73.8129,379.956 73.4795,378.289 74,376.5C 99.7805,327.937 125.28,279.271 150.5,230.5C 151.167,230.167 151.833,229.833 152.5,229.5C 154.833,232.167 157.167,234.833 159.5,237.5C 160.167,238.833 161.167,239.833 162.5,240.5C 172.134,251.468 182.134,262.135 192.5,272.5C 193.167,273.833 194.167,274.833 195.5,275.5C 199.833,280.167 204.167,284.833 208.5,289.5C 209.167,290.833 210.167,291.833 211.5,292.5C 215.833,297.167 220.167,301.833 224.5,306.5C 225.167,307.833 226.167,308.833 227.5,309.5C 227.833,310.5 228.5,311.167 229.5,311.5C 229.79,314.127 231.124,315.794 233.5,316.5C 236.027,318.605 238.36,320.939 240.5,323.5C 241.167,324.833 242.167,325.833 243.5,326.5C 246.131,331.485 249.798,332.818 254.5,330.5C 282.832,293.838 311.165,257.172 339.5,220.5 Z"/></g>
<g><path style="opacity:0.925" fill="#616161" d="M 180.5,21.5 C 178.485,22.9238 176.152,23.5905 173.5,23.5C 175.515,22.0762 177.848,21.4095 180.5,21.5 Z"/></g>
<g><path style="opacity:0.38" fill="#898989" d="M 276.5,38.5 C 274.821,38.2852 273.821,38.9519 273.5,40.5C 272.733,39.828 272.066,38.9947 271.5,38C 273.387,37.2204 275.054,37.3871 276.5,38.5 Z"/></g>
<g><path style="opacity:0.812" fill="#7a7a7a" d="M 139.5,37.5 C 139.027,38.9063 138.027,39.573 136.5,39.5C 136.973,38.0937 137.973,37.427 139.5,37.5 Z"/></g>
<g><path style="opacity:0.263" fill="#9a9a9a" d="M 215.5,39.5 C 217.035,38.2121 218.701,38.2121 220.5,39.5C 220.376,40.1067 220.043,40.44 219.5,40.5C 218.432,39.5655 217.099,39.2322 215.5,39.5 Z"/></g>
<g><path style="opacity:0.937" fill="#797979" d="M 367.5,41.5 C 368.71,41.9321 369.71,42.5987 370.5,43.5C 368.821,43.7148 367.821,43.0481 367.5,41.5 Z"/></g>
<g><path style="opacity:0.365" fill="#9d9d9d" d="M 275.5,44.5 C 276.906,44.9731 277.573,45.9731 277.5,47.5C 276.094,47.0269 275.427,46.0269 275.5,44.5 Z"/></g>
<g><path style="opacity:0.882" fill="#838383" d="M 313.5,46.5 C 315.698,46.1201 317.365,46.7868 318.5,48.5C 316.597,48.2041 314.93,47.5375 313.5,46.5 Z"/></g>
<g><path style="opacity:0.808" fill="#7a7a7a" d="M 120.5,48.5 C 120.027,49.9063 119.027,50.573 117.5,50.5C 117.973,49.0937 118.973,48.427 120.5,48.5 Z"/></g>
<g><path style="opacity:0.063" fill="#cacaca" d="M 247.5,50.5 C 246.833,50.5 246.167,50.5 245.5,50.5C 246.167,47.8333 246.833,47.8333 247.5,50.5 Z"/></g>
<g><path style="opacity:0.969" fill="#7b7b7b" d="M 386.5,53.5 C 388.23,54.0256 389.564,55.0256 390.5,56.5C 388.368,56.4456 387.035,55.4456 386.5,53.5 Z"/></g>
<g><path style="opacity:0.745" fill="#868686" d="M 111.5,54.5 C 111.027,55.9063 110.027,56.573 108.5,56.5C 108.973,55.0937 109.973,54.427 111.5,54.5 Z"/></g>
<g><path style="opacity:0.341" fill="#a1a1a1" d="M 280.5,53.5 C 281.906,53.9731 282.573,54.9731 282.5,56.5C 281.094,56.0269 280.427,55.0269 280.5,53.5 Z"/></g>
<g><path style="opacity:0.937" fill="#616161" d="M 99.5,63.5 C 98.4154,65.5869 96.7488,66.9202 94.5,67.5C 95.5846,65.4131 97.2512,64.0798 99.5,63.5 Z"/></g>
<g><path style="opacity:0.431" fill="#939393" d="M 357.5,65.5 C 359.027,65.427 360.027,66.0937 360.5,67.5C 358.973,67.573 357.973,66.9063 357.5,65.5 Z"/></g>
<g><path style="opacity:0.494" fill="#8b8b8b" d="M 362.5,68.5 C 364.027,68.427 365.027,69.0937 365.5,70.5C 363.973,70.573 362.973,69.9063 362.5,68.5 Z"/></g>
<g><path style="opacity:0.878" fill="#5f5f5f" d="M 93.5,68.5 C 91.7607,71.2427 89.4274,73.2427 86.5,74.5C 88.2393,71.7573 90.5726,69.7573 93.5,68.5 Z"/></g>
<g><path style="opacity:0.42" fill="#9d9d9d" d="M 365.5,70.5 C 367.027,70.427 368.027,71.0937 368.5,72.5C 366.973,72.573 365.973,71.9063 365.5,70.5 Z"/></g>
<g><path style="opacity:0.404" fill="#a1a1a1" d="M 368.5,72.5 C 370.027,72.427 371.027,73.0937 371.5,74.5C 369.973,74.573 368.973,73.9063 368.5,72.5 Z"/></g>
<g><path style="opacity:0.486" fill="#939393" d="M 371.5,74.5 C 373.027,74.427 374.027,75.0937 374.5,76.5C 372.973,76.573 371.973,75.9063 371.5,74.5 Z"/></g>
<g><path style="opacity:0.004" fill="#c1c1c1" d="M 414.5,76.5 C 416.027,76.427 417.027,77.0937 417.5,78.5C 415.973,78.573 414.973,77.9063 414.5,76.5 Z"/></g>
<g><path style="opacity:0.639" fill="#797979" d="M 374.5,76.5 C 376.027,76.427 377.027,77.0937 377.5,78.5C 375.973,78.573 374.973,77.9063 374.5,76.5 Z"/></g>
<g><path style="opacity:0.663" fill="#a3a3a3" d="M 417.5,78.5 C 418.833,79.1667 419.833,80.1667 420.5,81.5C 418.5,81.5 417.5,80.5 417.5,78.5 Z"/></g>
<g><path style="opacity:0.698" fill="#a1a1a1" d="M 420.5,81.5 C 423.243,83.2393 425.243,85.5726 426.5,88.5C 423.757,86.7607 421.757,84.4274 420.5,81.5 Z"/></g>
<g><path style="opacity:0.737" fill="#8e8e8e" d="M 383.5,83.5 C 385.027,83.427 386.027,84.0937 386.5,85.5C 384.973,85.573 383.973,84.9063 383.5,83.5 Z"/></g>
<g><path style="opacity:0.643" fill="#919191" d="M 84.5,76.5 C 80.8333,80.8333 76.8333,84.8333 72.5,88.5C 75.5,83.5 79.5,79.5 84.5,76.5 Z"/></g>
<g><path style="opacity:0.831" fill="#858585" d="M 388.5,87.5 C 390.404,87.7376 391.738,88.7376 392.5,90.5C 390.596,90.2624 389.262,89.2624 388.5,87.5 Z"/></g>
<g><path style="opacity:0.694" fill="#949494" d="M 66.5,94.5 C 66.573,96.0269 65.9063,97.0269 64.5,97.5C 64.427,95.9731 65.0937,94.9731 66.5,94.5 Z"/></g>
<g><path style="opacity:0.698" fill="#939393" d="M 432.5,94.5 C 433.906,94.9731 434.573,95.9731 434.5,97.5C 433.094,97.0269 432.427,96.0269 432.5,94.5 Z"/></g>
<g><path style="opacity:0.686" fill="#999999" d="M 61.5,100.5 C 61.573,102.027 60.9063,103.027 59.5,103.5C 59.427,101.973 60.0937,100.973 61.5,100.5 Z"/></g>
<g><path style="opacity:0.686" fill="#999999" d="M 437.5,100.5 C 438.906,100.973 439.573,101.973 439.5,103.5C 438.094,103.027 437.427,102.027 437.5,100.5 Z"/></g>
<g><path style="opacity:0.341" fill="#a1a1a1" d="M 306.5,100.5 C 307.906,100.973 308.573,101.973 308.5,103.5C 307.094,103.027 306.427,102.027 306.5,100.5 Z"/></g>
<g><path style="opacity:0.525" fill="#8b8b8b" d="M 50.5,115.5 C 50.573,117.027 49.9063,118.027 48.5,118.5C 48.427,116.973 49.0937,115.973 50.5,115.5 Z"/></g>
<g><path style="opacity:0.529" fill="#8b8b8b" d="M 448.5,115.5 C 449.906,115.973 450.573,116.973 450.5,118.5C 449.094,118.027 448.427,117.027 448.5,115.5 Z"/></g>
<g><path style="opacity:0.506" fill="#8c8c8c" d="M 48.5,118.5 C 48.573,120.027 47.9063,121.027 46.5,121.5C 46.427,119.973 47.0937,118.973 48.5,118.5 Z"/></g>
<g><path style="opacity:0.529" fill="#888888" d="M 450.5,118.5 C 451.906,118.973 452.573,119.973 452.5,121.5C 451.094,121.027 450.427,120.027 450.5,118.5 Z"/></g>
<g><path style="opacity:0.451" fill="#949494" d="M 46.5,121.5 C 46.573,123.027 45.9063,124.027 44.5,124.5C 44.427,122.973 45.0937,121.973 46.5,121.5 Z"/></g>
<g><path style="opacity:0.455" fill="#939393" d="M 452.5,121.5 C 453.906,121.973 454.573,122.973 454.5,124.5C 453.094,124.027 452.427,123.027 452.5,121.5 Z"/></g>
<g><path style="opacity:0.957" fill="#7f7f7f" d="M 427.5,130.5 C 429.446,131.035 430.446,132.368 430.5,134.5C 429.026,133.564 428.026,132.23 427.5,130.5 Z"/></g>
<g><path style="opacity:0.937" fill="#7c7c7c" d="M 434.5,141.5 C 436.048,141.821 436.715,142.821 436.5,144.5C 435.599,143.71 434.932,142.71 434.5,141.5 Z"/></g>
<g><path style="opacity:0.345" fill="#a1a1a1" d="M 332.5,147.5 C 333.906,147.973 334.573,148.973 334.5,150.5C 333.094,150.027 332.427,149.027 332.5,147.5 Z"/></g>
<g><path style="opacity:0.325" fill="#a5a5a5" d="M 337.5,156.5 C 338.906,156.973 339.573,157.973 339.5,159.5C 338.094,159.027 337.427,158.027 337.5,156.5 Z"/></g>
<g><path style="opacity:0.925" fill="#6c6c6c" d="M 19.5,177.5 C 19.5905,180.152 18.9238,182.485 17.5,184.5C 17.4095,181.848 18.0762,179.515 19.5,177.5 Z"/></g>
<g><path style="opacity:0.973" fill="#5d5d5d" d="M 17.5,184.5 C 17.5905,187.152 16.9238,189.485 15.5,191.5C 15.4095,188.848 16.0762,186.515 17.5,184.5 Z"/></g>
<g><path style="opacity:0.388" fill="#9a9a9a" d="M 353.5,185.5 C 354.906,185.973 355.573,186.973 355.5,188.5C 354.094,188.027 353.427,187.027 353.5,185.5 Z"/></g>
<g><path style="opacity:0.973" fill="#5c5c5c" d="M 481.5,184.5 C 482.924,186.515 483.59,188.848 483.5,191.5C 482.076,189.485 481.41,187.152 481.5,184.5 Z"/></g>
<g><path style="opacity:0.557" fill="#8d8d8d" d="M 324.5,192.5 C 324.573,194.027 323.906,195.027 322.5,195.5C 322.427,193.973 323.094,192.973 324.5,192.5 Z"/></g>
<g><path style="opacity:0.325" fill="#a4a4a4" d="M 363.5,203.5 C 364.906,203.973 365.573,204.973 365.5,206.5C 364.094,206.027 363.427,205.027 363.5,203.5 Z"/></g>
<g><path style="opacity:0.733" fill="#999999" d="M 172.5,208.5 C 174.587,209.585 175.92,211.251 176.5,213.5C 174.413,212.415 173.08,210.749 172.5,208.5 Z"/></g>
<g><path style="opacity:0.039" fill="#d3d3d3" d="M 341.5,220.5 C 340.833,220.5 340.167,220.5 339.5,220.5C 340.548,218.067 341.214,218.067 341.5,220.5 Z"/></g>
<g><path style="opacity:0.741" fill="#9d9d9d" d="M 188.5,225.5 C 190.914,226.911 192.581,228.911 193.5,231.5C 191.086,230.089 189.419,228.089 188.5,225.5 Z"/></g>
<g><path style="opacity:0.157" fill="#bdbdbd" d="M 152.5,229.5 C 151.833,229.833 151.167,230.167 150.5,230.5C 150.711,228.576 151.377,228.243 152.5,229.5 Z"/></g>
<g><path style="opacity:0.878" fill="#7a7a7a" d="M 297.5,227.5 C 297.262,229.404 296.262,230.738 294.5,231.5C 294.738,229.596 295.738,228.262 297.5,227.5 Z"/></g>
<g><path style="opacity:0.596" fill="#acacac" d="M 159.5,237.5 C 161.5,237.5 162.5,238.5 162.5,240.5C 161.167,239.833 160.167,238.833 159.5,237.5 Z"/></g>
<g><path style="opacity:0.498" fill="#989898" d="M 289.5,237.5 C 289.573,239.027 288.906,240.027 287.5,240.5C 287.427,238.973 288.094,237.973 289.5,237.5 Z"/></g>
<g><path style="opacity:0.349" fill="#a0a0a0" d="M 384.5,241.5 C 385.906,241.973 386.573,242.973 386.5,244.5C 385.094,244.027 384.427,243.027 384.5,241.5 Z"/></g>
<g><path style="opacity:0.698" fill="#9e9e9e" d="M 205.5,243.5 C 207.587,244.585 208.92,246.251 209.5,248.5C 207.413,247.415 206.08,245.749 205.5,243.5 Z"/></g>
<g><path style="opacity:0.486" fill="#9b9b9b" d="M 282.5,246.5 C 282.573,248.027 281.906,249.027 280.5,249.5C 280.427,247.973 281.094,246.973 282.5,246.5 Z"/></g>
<g><path style="opacity:0.325" fill="#a4a4a4" d="M 389.5,250.5 C 390.906,250.973 391.573,251.973 391.5,253.5C 390.094,253.027 389.427,252.027 389.5,250.5 Z"/></g>
<g><path style="opacity:0.941" fill="#797979" d="M 360.5,255.5 C 362.048,255.821 362.715,256.821 362.5,258.5C 361.599,257.71 360.932,256.71 360.5,255.5 Z"/></g>
<g><path style="opacity:0.475" fill="#9d9d9d" d="M 275.5,255.5 C 275.573,257.027 274.906,258.027 273.5,258.5C 273.427,256.973 274.094,255.973 275.5,255.5 Z"/></g>
<g><path style="opacity:0.714" fill="#9c9c9c" d="M 221.5,260.5 C 223.587,261.585 224.92,263.251 225.5,265.5C 223.413,264.415 222.08,262.749 221.5,260.5 Z"/></g>
<g><path style="opacity:0.459" fill="#a0a0a0" d="M 268.5,264.5 C 268.573,266.027 267.906,267.027 266.5,267.5C 266.427,265.973 267.094,264.973 268.5,264.5 Z"/></g>
<g><path style="opacity:0.627" fill="#a7a7a7" d="M 192.5,272.5 C 194.5,272.5 195.5,273.5 195.5,275.5C 194.167,274.833 193.167,273.833 192.5,272.5 Z"/></g>
<g><path style="opacity:0.451" fill="#a1a1a1" d="M 261.5,273.5 C 261.573,275.027 260.906,276.027 259.5,276.5C 259.427,274.973 260.094,273.973 261.5,273.5 Z"/></g>
<g><path style="opacity:0.725" fill="#9a9a9a" d="M 237.5,277.5 C 239.587,278.585 240.92,280.251 241.5,282.5C 239.413,281.415 238.08,279.749 237.5,277.5 Z"/></g>
<g><path style="opacity:0.612" fill="#a9a9a9" d="M 208.5,289.5 C 210.5,289.5 211.5,290.5 211.5,292.5C 210.167,291.833 209.167,290.833 208.5,289.5 Z"/></g>
<g><path style="opacity:0.349" fill="#a0a0a0" d="M 410.5,288.5 C 411.906,288.973 412.573,289.973 412.5,291.5C 411.094,291.027 410.427,290.027 410.5,288.5 Z"/></g>
<g><path style="opacity:0.325" fill="#a4a4a4" d="M 415.5,297.5 C 416.906,297.973 417.573,298.973 417.5,300.5C 416.094,300.027 415.427,299.027 415.5,297.5 Z"/></g>
<g><path style="opacity:0.941" fill="#797979" d="M 386.5,302.5 C 388.048,302.821 388.715,303.821 388.5,305.5C 387.599,304.71 386.932,303.71 386.5,302.5 Z"/></g>
<g><path style="opacity:0.6" fill="#ababab" d="M 224.5,306.5 C 226.5,306.5 227.5,307.5 227.5,309.5C 226.167,308.833 225.167,307.833 224.5,306.5 Z"/></g>
<g><path style="opacity:0.824" fill="#848484" d="M 229.5,311.5 C 231.18,312.782 232.513,314.449 233.5,316.5C 231.124,315.794 229.79,314.127 229.5,311.5 Z"/></g>
<g><path style="opacity:0.882" fill="#838383" d="M 42.5,317.5 C 43.5375,318.93 44.2041,320.597 44.5,322.5C 42.7868,321.365 42.1201,319.698 42.5,317.5 Z"/></g>
<g><path style="opacity:0.882" fill="#818181" d="M 456.5,317.5 C 456.741,319.898 456.074,321.898 454.5,323.5C 454.595,321.214 455.262,319.214 456.5,317.5 Z"/></g>
<g><path style="opacity:0.588" fill="#adadad" d="M 240.5,323.5 C 242.5,323.5 243.5,324.5 243.5,326.5C 242.167,325.833 241.167,324.833 240.5,323.5 Z"/></g>
<g><path style="opacity:0.353" fill="#9f9f9f" d="M 436.5,335.5 C 437.906,335.973 438.573,336.973 438.5,338.5C 437.094,338.027 436.427,337.027 436.5,335.5 Z"/></g>
<g><path style="opacity:0.333" fill="#a3a3a3" d="M 441.5,344.5 C 442.906,344.973 443.573,345.973 443.5,347.5C 442.094,347.027 441.427,346.027 441.5,344.5 Z"/></g>
<g><path style="opacity:0.941" fill="#797979" d="M 412.5,349.5 C 414.048,349.821 414.715,350.821 414.5,352.5C 413.599,351.71 412.932,350.71 412.5,349.5 Z"/></g>
<g><path style="opacity:0.553" fill="#848484" d="M 57.5,348.5 C 56.968,351.46 56.3013,351.793 55.5,349.5C 56.1667,349.167 56.8333,348.833 57.5,348.5 Z"/></g>
<g><path style="opacity:0.62" fill="#7c7c7c" d="M 426.5,378.5 C 426.573,380.027 425.906,381.027 424.5,381.5C 424.427,379.973 425.094,378.973 426.5,378.5 Z"/></g>
<g><path style="opacity:0.737" fill="#8e8e8e" d="M 79.5,387.5 C 80.9063,387.973 81.573,388.973 81.5,390.5C 80.0937,390.027 79.427,389.027 79.5,387.5 Z"/></g>
<g><path style="opacity:0.737" fill="#8e8e8e" d="M 419.5,387.5 C 419.573,389.027 418.906,390.027 417.5,390.5C 417.427,388.973 418.094,387.973 419.5,387.5 Z"/></g>
<g><path style="opacity:0.973" fill="#7b7b7b" d="M 49.5,390.5 C 51.4456,391.035 52.4456,392.368 52.5,394.5C 51.0256,393.564 50.0256,392.23 49.5,390.5 Z"/></g>
<g><path style="opacity:0.824" fill="#868686" d="M 83.5,392.5 C 85.2624,393.262 86.2624,394.596 86.5,396.5C 84.7376,395.738 83.7376,394.404 83.5,392.5 Z"/></g>
<g><path style="opacity:0.824" fill="#7f7f7f" d="M 415.5,392.5 C 415.262,394.404 414.262,395.738 412.5,396.5C 412.738,394.596 413.738,393.262 415.5,392.5 Z"/></g>
<g><path style="opacity:0.839" fill="#5e5e5e" d="M 404.5,404.5 C 402.167,408.833 398.833,412.167 394.5,414.5C 397.5,410.833 400.833,407.5 404.5,404.5 Z"/></g>
<g><path style="opacity:0.004" fill="#c2c2c2" d="M 72.5,418.5 C 73.9063,418.973 74.573,419.973 74.5,421.5C 73.0937,421.027 72.427,420.027 72.5,418.5 Z"/></g>
<g><path style="opacity:0.914" fill="#5b5b5b" d="M 392.5,416.5 C 391.089,418.914 389.089,420.581 386.5,421.5C 387.911,419.086 389.911,417.419 392.5,416.5 Z"/></g>
<g><path style="opacity:0.969" fill="#565656" d="M 386.5,421.5 C 385.415,423.587 383.749,424.92 381.5,425.5C 382.585,423.413 384.251,422.08 386.5,421.5 Z"/></g>
<g><path style="opacity:0.678" fill="#a2a2a2" d="M 78.5,425.5 C 81.0892,426.419 83.0892,428.086 84.5,430.5C 81.9108,429.581 79.9108,427.914 78.5,425.5 Z"/></g>
<g><path style="opacity:0.776" fill="#7f7f7f" d="M 374.5,430.5 C 374.027,431.906 373.027,432.573 371.5,432.5C 371.973,431.094 372.973,430.427 374.5,430.5 Z"/></g>
<g><path style="opacity:0.957" fill="#7f7f7f" d="M 126.5,431.5 C 128.23,432.026 129.564,433.026 130.5,434.5C 128.368,434.446 127.035,433.446 126.5,431.5 Z"/></g>
<g><path style="opacity:0.729" fill="#8b8b8b" d="M 371.5,432.5 C 371.027,433.906 370.027,434.573 368.5,434.5C 368.973,433.094 369.973,432.427 371.5,432.5 Z"/></g>
<g><path style="opacity:0.753" fill="#868686" d="M 368.5,434.5 C 368.027,435.906 367.027,436.573 365.5,436.5C 365.973,435.094 366.973,434.427 368.5,434.5 Z"/></g>
<g><path style="opacity:0.714" fill="#929292" d="M 90.5,436.5 C 92.0269,436.427 93.0269,437.094 93.5,438.5C 91.9731,438.573 90.9731,437.906 90.5,436.5 Z"/></g>
<g><path style="opacity:0.937" fill="#7c7c7c" d="M 137.5,438.5 C 138.71,438.932 139.71,439.599 140.5,440.5C 138.821,440.715 137.821,440.048 137.5,438.5 Z"/></g>
<g><path style="opacity:0.69" fill="#989898" d="M 96.5,441.5 C 98.0269,441.427 99.0269,442.094 99.5,443.5C 97.9731,443.573 96.9731,442.906 96.5,441.5 Z"/></g>
<g><path style="opacity:0.533" fill="#8a8a8a" d="M 111.5,452.5 C 113.027,452.427 114.027,453.094 114.5,454.5C 112.973,454.573 111.973,453.906 111.5,452.5 Z"/></g>
<g><path style="opacity:0.514" fill="#8a8a8a" d="M 114.5,454.5 C 116.027,454.427 117.027,455.094 117.5,456.5C 115.973,456.573 114.973,455.906 114.5,454.5 Z"/></g>
<g><path style="opacity:0.455" fill="#939393" d="M 117.5,456.5 C 119.027,456.427 120.027,457.094 120.5,458.5C 118.973,458.573 117.973,457.906 117.5,456.5 Z"/></g>
<g><path style="opacity:0.925" fill="#797979" d="M 324.5,456.5 C 323.365,458.213 321.698,458.88 319.5,458.5C 320.93,457.463 322.597,456.796 324.5,456.5 Z"/></g>
<g><path style="opacity:0.902" fill="#636363" d="M 319.5,458.5 C 315.915,460.806 311.915,462.139 307.5,462.5C 311.216,460.595 315.216,459.261 319.5,458.5 Z"/></g>
<g><path style="opacity:0.925" fill="#6b6b6b" d="M 173.5,483.5 C 176.152,483.41 178.485,484.076 180.5,485.5C 177.848,485.59 175.515,484.924 173.5,483.5 Z"/></g>
</svg>
